# xmcd
#
# Track frame offsets:
#	150
#	16196
#	29784
#	48393
#	58681
#	71926
#	85236
#	96404
#	109017
#	120754
#	134633
#	148033
#	160102
#	172810
#
# Disc length: 2511 seconds
#
# Revision: 0
# Processed by: cddbd v1.5.1PL0 Copyright (c) Steve Scherf et al.
# Submitted via: dBpowerAMP V4.0
#
DISCID=c109cd0e
DTITLE=Mariano Barba - Una Noche Mas Contigo
DYEAR=2004
DGENRE=Vocal
TTITLE0=El Pachangon
TTITLE1=A Partir De Hoy
TTITLE2=Una Noche Mas Contigo
TTITLE3=La Bronca
TTITLE4=Por Una Mujer Bonita
TTITLE5=El Hombre Alegre
TTITLE6=Golpe Al Corazon
TTITLE7=Que Bonito
TTITLE8=El Hotel De Manuela
TTITLE9=Que Se Meta El Dedo
TTITLE10=Eslabon Por Eslabon
TTITLE11=Mariana
TTITLE12=La cheve
TTITLE13=No Volvere
EXTD=sinaloa !!!!!!
EXTT0=
EXTT1=
EXTT2=
EXTT3=
EXTT4=
EXTT5=
EXTT6=
EXTT7=
EXTT8=
EXTT9=
EXTT10=
EXTT11=
EXTT12=
EXTT13=
PLAYORDER=
